<svg
  viewBox="0 0 60 60"
  x="0"
  y="0"
  width="100%"
  height="100%"
  class="image-svg-svg bn"
  style="overflow: visible"
>
  <g
    hollow-target="iconBnFill"
    mask="url(#3582eb35-cde4-4f42-b295-eea3e7f45b6e)"
  >
    <g>
      <svg
          xmlns="http://www.w3.org/2000/svg"
          xmlns:xlink="http://www.w3.org/1999/xlink"
          xml:space="preserve"
          version="1.1"
          style="
            shape-rendering: geometricprecision;
            text-rendering: geometricprecision;
            overflow: visible;
          "
          viewBox="0 0 249 249"
          x="0"
          y="0"
          width="60"
          height="60"
          filtersec="colorsf7981568386"
          fill="#FB9332"
        >
          <g transform="scale(1, 1) skewX(0)">
            <g>
              <path
                class="fil0"
                d="M125 0c68,0 124,56 124,125 0,68 -56,124 -124,124 -69,0 -125,-56 -125,-124 0,-69 56,-125 125,-125z"
              ></path>
            </g>
          </g>
        </svg>

    </g>
    <g fill="#ffffff">
      <svg
        xmlns="http://www.w3.org/2000/svg"
        xmlns:xlink="http://www.w3.org/1999/xlink"
        viewBox="0 0 174.02400000000003 60.480000000000004"
        width="45"
        height="45"
        x="7.5"
        y="7.5"
        class="image-svg-letter"
      >
        <path
          transform="translate(-3.6000000000000005 59.760000000000005)"
          d="M21.31 0C20.66-13.10 20.66-26.21 21.38-39.31L4.10-39.31C4.82-25.70 4.82-13.61 4.18 0ZM12.53-43.56C18.79-43.56 21.46-47.16 21.46-51.62C21.46-55.94 18.65-59.76 12.53-59.76C6.12-59.76 3.60-55.94 3.60-51.62C3.60-47.16 6.12-43.56 12.53-43.56ZM41.18-52.85C38.30-49.68 37.51-47.59 27.94-46.30C28.94-41.04 29.38-35.93 29.52-30.82C34.13-31.75 38.16-33.84 40.10-38.16L40.10-13.32C36.22-13.32 32.26-13.46 28.37-13.61L28.37 0L66.46 0L66.46-13.61C63.29-13.46 60.05-13.39 56.88-13.32L56.88-52.99L41.18-52.99ZM99.00 0.72C116.21 0.72 127.58-3.96 127.58-15.77C127.58-19.87 124.56-25.85 117.79-28.22C122.90-30.46 126.07-32.98 126.07-38.45C126.07-47.30 116.78-53.78 99.00-53.78C81.07-53.78 71.78-47.30 71.78-38.45C71.78-32.98 75.02-30.46 79.70-28.22C73.30-25.78 70.27-19.87 70.27-15.77C70.27-3.96 81.65 0.72 99.00 0.72ZM99.14-12.31C93.74-12.31 89.35-14.26 89.35-17.57C89.35-20.81 93.74-22.75 99.14-22.75C104.40-22.75 108.86-20.81 108.86-17.57C108.86-14.26 104.47-12.31 99.14-12.31ZM99.14-32.47C93.74-32.47 89.35-34.42 89.35-37.73C89.35-40.97 93.74-42.91 99.14-42.91C104.40-42.91 108.86-40.97 108.86-37.73C108.86-34.42 104.47-32.47 99.14-32.47ZM133.34 0L150.55 0C150.19-8.21 150.26-12.60 150.41-18.50C150.77-23.54 153.36-26.42 156.38-26.42C159.48-26.42 161.86-23.83 161.86-19.51C161.86-12.31 161.71-7.06 161.42 0L177.62 0C177.19-5.90 177.26-12.53 177.26-20.23L177.26-25.70C177.26-33.62 172.30-40.03 163.37-40.03C157.54-40.03 152.28-36.79 149.98-28.73L147.89-39.31C141.62-39.02 139.61-39.02 133.34-39.31C134.06-26.21 134.06-12.96 133.34 0Z"
        ></path>
      </svg>
    </g>
  </g>
  <mask id="3582eb35-cde4-4f42-b295-eea3e7f45b6e">
    <g fill="white">
      <svg
        xmlns="http://www.w3.org/2000/svg"
        viewBox="0.00147 -0.00415 416.78745 416.43256"
        style="overflow: visible"
        width="60"
        height="59.94904331318379"
        x="0"
        y="0"
        filtersec="colorsf545749587"
      >
        <g transform="scale(1, 1) skewX(0)">
          <g>
            <path
              d="M415.65 162.72c-1.21-20.68-3.53-41.15-9.32-61.09-13.62-46.83-44.09-76.88-90.72-90.72-29.06-8.63-59-9.79-89-10.65-19.47-.56-39-.2-58.44.8C145.49 2.23 123 4.5 101.11 11 57.7 23.81 27.75 51 12.84 94.11c-9 26-11.62 53-12.31 80.17-.67 26.79-.92 53.62.58 80.43 1.16 20.7 3.6 41.12 9.35 61.08 10.93 38 33.73 66.06 69.8 82.8 16 7.43 33 11.3 50.41 13.89 25.8 3.84 51.76 4 80.91 3.94 12.32-.36 27.79.05 43.29-.9 20.68-1.28 41.14-3.58 61.07-9.4 43.93-12.84 73.71-40.65 88.46-84.19 8.65-25.53 11.24-52.07 11.87-78.74s.95-53.66-.62-80.47z"
            ></path>
          </g>
        </g>
        <defs></defs>
      </svg>
    </g>
  </mask>
</svg>
